<?xml version="1.0" standalone="no"?>
<!DOCTYPE svg PUBLIC "-//W3C//DTD SVG 20010904//EN"
 "http://www.w3.org/TR/2001/REC-SVG-20010904/DTD/svg10.dtd">
<svg version="1.0" xmlns="http://www.w3.org/2000/svg"
 width="225.000000pt" height="225.000000pt" viewBox="0 0 225.000000 225.000000"
 preserveAspectRatio="xMidYMid meet">
<metadata>
Created by potrace 1.14, written by Peter Selinger 2001-2017
</metadata>
<g transform="translate(0.000000,225.000000) scale(0.100000,-0.100000)"
fill="#000000" stroke="none">
<path d="M296 1690 c-82 -41 -128 -108 -152 -221 -95 -444 403 -1106 765
-1019 145 35 218 168 208 380 -6 135 -34 236 -102 375 -116 239 -298 422 -481
485 -77 27 -185 26 -238 0z"/>
<path d="M1754 1696 c-119 -38 -278 -163 -383 -304 -152 -203 -241 -484 -212
-672 20 -128 68 -206 156 -253 59 -32 178 -30 261 5 258 108 497 433 554 754
17 98 9 244 -19 315 -25 66 -78 124 -135 150 -48 22 -159 24 -222 5z"/>
</g>
</svg>
